<svg width="20" height="20" viewBox="0 0 20 20" fill="none" xmlns="http://www.w3.org/2000/svg">
<path d="M5 4C5 3.73478 4.89464 3.48043 4.70711 3.29289C4.51957 3.10536 4.26522 3 4 3C3.73478 3 3.48043 3.10536 3.29289 3.29289C3.10536 3.48043 3 3.73478 3 4V11.268C2.69599 11.4435 2.44353 11.696 2.26801 12C2.09249 12.3041 2.00009 12.6489 2.00009 13C2.00009 13.3511 2.09249 13.6959 2.26801 14C2.44353 14.304 2.69599 14.5565 3 14.732V16C3 16.2652 3.10536 16.5196 3.29289 16.7071C3.48043 16.8946 3.73478 17 4 17C4.26522 17 4.51957 16.8946 4.70711 16.7071C4.89464 16.5196 5 16.2652 5 16V14.732C5.30401 14.5565 5.55647 14.304 5.73199 14C5.90751 13.6959 5.99991 13.3511 5.99991 13C5.99991 12.6489 5.90751 12.3041 5.73199 12C5.55647 11.696 5.30401 11.4435 5 11.268V4ZM11 4C11 3.73478 10.8946 3.48043 10.7071 3.29289C10.5196 3.10536 10.2652 3 10 3C9.73478 3 9.48043 3.10536 9.29289 3.29289C9.10536 3.48043 9 3.73478 9 4V5.268C8.69599 5.44354 8.44353 5.69602 8.26801 6.00004C8.09249 6.30407 8.00009 6.64894 8.00009 7C8.00009 7.35106 8.09249 7.69593 8.26801 7.99996C8.44353 8.30398 8.69599 8.55646 9 8.732V16C9 16.2652 9.10536 16.5196 9.29289 16.7071C9.48043 16.8946 9.73478 17 10 17C10.2652 17 10.5196 16.8946 10.7071 16.7071C10.8946 16.5196 11 16.2652 11 16V8.732C11.304 8.55646 11.5565 8.30398 11.732 7.99996C11.9075 7.69593 11.9999 7.35106 11.9999 7C11.9999 6.64894 11.9075 6.30407 11.732 6.00004C11.5565 5.69602 11.304 5.44354 11 5.268V4ZM16 3C16.2652 3 16.5196 3.10536 16.7071 3.29289C16.8946 3.48043 17 3.73478 17 4V11.268C17.304 11.4435 17.5565 11.696 17.732 12C17.9075 12.3041 17.9999 12.6489 17.9999 13C17.9999 13.3511 17.9075 13.6959 17.732 14C17.5565 14.304 17.304 14.5565 17 14.732V16C17 16.2652 16.8946 16.5196 16.7071 16.7071C16.5196 16.8946 16.2652 17 16 17C15.7348 17 15.4804 16.8946 15.2929 16.7071C15.1054 16.5196 15 16.2652 15 16V14.732C14.696 14.5565 14.4435 14.304 14.268 14C14.0925 13.6959 14.0001 13.3511 14.0001 13C14.0001 12.6489 14.0925 12.3041 14.268 12C14.4435 11.696 14.696 11.4435 15 11.268V4C15 3.73478 15.1054 3.48043 15.2929 3.29289C15.4804 3.10536 15.7348 3 16 3Z" fill="#3D3D3D"/>
</svg>
