<svg width="28" height="24" viewBox="0 0 28 24" fill="none" xmlns="http://www.w3.org/2000/svg">
<path d="M2.477 2.477C1.85019 3.10379 1.35298 3.84791 1.01376 4.66687C0.674535 5.48582 0.499939 6.36357 0.499939 7.25C0.499939 8.13643 0.674535 9.01418 1.01376 9.83313C1.35298 10.6521 1.85019 11.3962 2.477 12.023L14 23.546L25.523 12.023C26.7889 10.7571 27.5 9.04022 27.5 7.25C27.5 5.45978 26.7889 3.74288 25.523 2.477C24.2571 1.21112 22.5402 0.499956 20.75 0.499956C18.9598 0.499956 17.2429 1.21112 15.977 2.477L14 4.454L12.023 2.477C11.3962 1.85019 10.6521 1.35298 9.83313 1.01376C9.01418 0.674536 8.13643 0.499939 7.25 0.499939C6.36357 0.499939 5.48582 0.674536 4.66687 1.01376C3.84791 1.35298 3.10379 1.85019 2.477 2.477V2.477Z" fill="#FF5555"/>
</svg>
