<svg width="36" height="36" viewBox="0 0 36 36" fill="none" xmlns="http://www.w3.org/2000/svg">
<path d="M6.477 9.477C5.85019 10.1038 5.35298 10.8479 5.01376 11.6669C4.67454 12.4858 4.49994 13.3636 4.49994 14.25C4.49994 15.1364 4.67454 16.0142 5.01376 16.8331C5.35298 17.6521 5.85019 18.3962 6.477 19.023L18 30.546L29.523 19.023C30.7889 17.7571 31.5 16.0402 31.5 14.25C31.5 12.4598 30.7889 10.7429 29.523 9.477C28.2571 8.21112 26.5402 7.49996 24.75 7.49996C22.9598 7.49996 21.2429 8.21112 19.977 9.477L18 11.454L16.023 9.477C15.3962 8.85019 14.6521 8.35298 13.8331 8.01376C13.0142 7.67454 12.1364 7.49994 11.25 7.49994C10.3636 7.49994 9.48582 7.67454 8.66687 8.01376C7.84791 8.35298 7.10379 8.85019 6.477 9.477V9.477Z" stroke="black" stroke-width="2" stroke-linecap="round" stroke-linejoin="round"/>
</svg>
